<svg xmlns="http://www.w3.org/2000/svg" width="810" viewBox="0 0 810 810" height="810" version="1.0"><defs><clipPath id="a"><path d="M 0 20.25 L 810 20.25 L 810 789.75 L 0 789.75 Z M 0 20.25"/></clipPath></defs><path fill="#FFF" d="M-81 -81H891V891H-81z"/><path fill="#FFF" d="M-81 -81H891V891H-81z"/><g clip-path="url(#a)"><path fill="#F9FF00" d="M 405 638.683594 L 655.289062 789.75 L 589.074219 505.035156 L 810 313.671875 L 518.804688 288.5625 L 405 20.25 L 291.195312 288.5625 L 0 313.671875 L 220.925781 505.035156 L 154.710938 789.75 Z M 405 638.683594"/></g><g fill="#222"><g><g><path d="M 84.84375 -253.71875 L 84.84375 -152.734375 L 230.125 -152.734375 L 230.125 -117.140625 L 84.84375 -117.140625 L 84.84375 0 L 43.453125 0 L 43.453125 -289.734375 L 247.9375 -289.734375 L 247.9375 -253.71875 Z M 84.84375 -253.71875" transform="translate(273.563 607.631)"/></g></g></g></svg>